<svg width="276" height="86" viewBox="0 0 276 86" fill="none" xmlns="http://www.w3.org/2000/svg">
<rect width="274.427" height="86" rx="43" transform="matrix(-1 0 0 1 275.121 0)" fill="#FF6600"/>
<path d="M100.92 53.1145C98.9728 50.9739 98 48.3477 98 45.2337C98 42.1219 98.9728 39.4871 100.92 37.3274C102.866 35.1697 105.339 34.0898 108.34 34.0898C111.096 34.0898 113.366 34.9653 115.151 36.7139V34.7118H122.334V55.713H115.236V53.336H115.151C113.366 55.3297 111.096 56.3265 108.34 56.3265C105.339 56.3265 102.866 55.2572 100.92 53.1145ZM107.023 41.6724C106.088 42.599 105.622 43.7854 105.622 45.2337C105.622 46.6778 106.065 47.8557 106.956 48.7694C107.85 49.6853 109.028 50.1411 110.492 50.1411C111.898 50.1411 113.054 49.6789 113.961 48.7524C114.867 47.828 115.32 46.6544 115.32 45.2337C115.32 43.7854 114.852 42.599 113.919 41.6724C112.984 40.7417 111.843 40.2752 110.492 40.2752C109.112 40.2752 107.956 40.7417 107.023 41.6724Z" fill="black"/>
<path d="M134.834 40.0281C133.483 40.0281 132.321 40.5351 131.348 41.5447C130.373 42.5564 129.888 43.7726 129.888 45.1911C129.888 46.6395 130.373 47.8706 131.348 48.8802C132.321 49.8855 133.483 50.3882 134.834 50.3882C135.486 50.3882 136.102 50.3094 136.682 50.1496C137.26 49.9856 137.687 49.8216 137.957 49.6555L138.328 49.4084L140.759 54.4436C140.567 54.5799 140.303 54.7503 139.966 54.9548C139.628 55.1593 138.856 55.4383 137.653 55.7897C136.454 56.1476 135.163 56.3265 133.779 56.3265C130.723 56.3265 128.039 55.2423 125.726 53.0719C123.418 50.9036 122.266 48.3008 122.266 45.2678C122.266 42.2135 123.418 39.5851 125.726 37.387C128.039 35.1889 130.723 34.0898 133.779 34.0898C135.163 34.0898 136.433 34.256 137.594 34.584C138.759 34.9141 139.582 35.24 140.067 35.5638L140.759 36.0579L138.328 41.0164C137.433 40.3583 136.269 40.0281 134.834 40.0281Z" fill="black"/>
<path d="M161.257 46.2135H146.165C146.165 47.6917 146.637 48.7843 147.583 49.4936C148.528 50.1986 149.554 50.5501 150.664 50.5501C151.828 50.5501 152.748 50.3946 153.424 50.0815C154.099 49.7705 154.869 49.1507 155.736 48.2242L160.927 50.8397C158.767 54.499 155.171 56.3265 150.14 56.3265C147 56.3265 144.308 55.2423 142.063 53.0719C139.822 50.9036 138.703 48.2902 138.703 45.2337C138.703 42.173 139.822 39.551 142.063 37.37C144.308 35.1846 147 34.0898 150.14 34.0898C153.436 34.0898 156.118 35.0526 158.184 36.978C160.254 38.9035 161.29 41.6554 161.29 45.2337C161.29 45.7236 161.278 46.0495 161.257 46.2135ZM146.367 42.2007H154.276C154.112 41.1101 153.685 40.2731 152.993 39.6873C152.305 39.0973 151.423 38.8013 150.343 38.8013C149.148 38.8013 148.201 39.1165 147.498 39.747C146.793 40.3732 146.418 41.1911 146.367 42.2007Z" fill="black"/>
<path d="M162.512 55.7131V34.7118H169.695V36.9184H169.779C171.64 35.0334 173.628 34.0898 175.738 34.0898C177.251 34.0898 178.669 34.4051 179.992 35.0355C181.32 35.666 182.322 36.6351 182.997 37.9408C185.107 35.3742 187.405 34.0898 189.893 34.0898C192.115 34.0898 194.023 34.7203 195.616 35.9812C197.213 37.2379 198.013 39.2017 198.013 41.8769V55.7131H190.83V43.8365C190.83 42.7183 190.526 41.7832 189.919 41.0335C189.311 40.2837 188.395 39.9089 187.175 39.9089C186.122 39.9089 185.318 40.2305 184.761 40.8716C184.208 41.5148 183.905 42.2837 183.85 43.1805V55.7131H176.675V43.8365C176.675 42.7183 176.367 41.7832 175.755 41.0335C175.147 40.2837 174.236 39.9089 173.02 39.9089C171.91 39.9089 171.079 40.2582 170.522 40.9568C169.969 41.6512 169.695 42.4733 169.695 43.4275V55.7131H162.512Z" fill="#787878"/>
<path d="M200.463 53.0975C198.516 50.9398 197.543 48.3051 197.543 45.1911C197.543 42.0793 198.516 39.453 200.463 37.3103C202.409 35.1633 204.882 34.0898 207.883 34.0898C210.639 34.0898 212.909 35.0867 214.694 37.0803H214.779V34.7118H221.877V66.3628H214.694V53.7109C212.909 55.4553 210.639 56.3265 207.883 56.3265C204.882 56.3265 202.409 55.2509 200.463 53.0975ZM206.499 41.6469C205.608 42.5628 205.165 43.7428 205.165 45.1911C205.165 46.6395 205.631 47.828 206.566 48.7524C207.499 49.6789 208.655 50.1411 210.035 50.1411C211.386 50.1411 212.527 49.6789 213.462 48.7524C214.395 47.828 214.863 46.6395 214.863 45.1911C214.863 43.7726 214.41 42.599 213.504 41.6725C212.597 40.7417 211.441 40.2752 210.035 40.2752C208.571 40.2752 207.393 40.7331 206.499 41.6469Z" fill="#787878"/>
<path d="M65.4355 52.0132C63.7603 55.1721 66.0278 58.9997 69.5815 58.9997H57.9112C54.361 58.9997 52.09 55.1757 53.7652 52.0132L54.4065 50.7998L68.2848 24.6367L69.4133 22.5072C71.1831 19.1643 75.9319 19.1643 77.7017 22.5072L79.3909 25.6944L74.12 35.6382L66.0769 50.7998L65.4355 52.0132Z" fill="black"/>
<path d="M89.2131 59.0007H80.6338C77.0836 59.0007 74.8127 55.1767 76.4879 52.0142L78.482 48.2539L84.92 36.1133L93.352 52.0142C95.0342 55.1767 92.7633 59.0007 89.2131 59.0007Z" fill="black"/>
<path d="M84.9192 36.1089V36.1159L78.4777 48.2494C79.035 47.1847 79.1962 45.9076 78.8142 44.6589C78.7931 44.5988 78.7756 44.5351 78.7546 44.475C78.674 44.2521 78.5723 44.0293 78.4602 43.8099L74.8575 37.018L74.125 35.6348L79.3994 25.6875L80.1319 27.0706L84.1377 34.6196L84.9192 36.1089Z" fill="#7C7C7C"/>
<path d="M89.2131 59.0007H80.6338C77.0836 59.0007 74.8127 55.1767 76.4879 52.0142L78.482 48.2539L84.92 36.1133L93.352 52.0142C95.0342 55.1767 92.7633 59.0007 89.2131 59.0007Z" fill="black"/>
<path d="M89.2131 59.0007H80.6338C77.0836 59.0007 74.8127 55.1767 76.4879 52.0142L78.482 48.2539L84.92 36.1133L93.352 52.0142C95.0342 55.1767 92.7633 59.0007 89.2131 59.0007Z" fill="black"/>
<g opacity="0.1">
<mask id="mask0_616_562" style="mask-type:luminance" maskUnits="userSpaceOnUse" x="74" y="25" width="7" height="13">
<path d="M80.1206 25.6953H74.1172V37.0258H80.1206V25.6953Z" fill="white"/>
</mask>
<g mask="url(#mask0_616_562)">
<path d="M80.1206 27.0749L74.8461 37.0258L74.1172 35.6427L79.3881 25.6953L80.1206 27.0749Z" fill="black"/>
</g>
</g>
<g opacity="0.1">
<mask id="mask1_616_562" style="mask-type:luminance" maskUnits="userSpaceOnUse" x="78" y="34" width="7" height="15">
<path d="M84.9219 34.625H78.4805V48.2513H84.9219V34.625Z" fill="white"/>
</mask>
<g mask="url(#mask1_616_562)">
<path d="M84.9219 36.1068V36.1139L78.4805 48.2474C79.0377 47.1826 79.1989 45.9056 78.8169 44.6569L84.1369 34.6211L84.9219 36.1068Z" fill="black"/>
</g>
</g>
</svg>
