<svg width="229" height="230" viewBox="0 0 229 230" fill="none" xmlns="http://www.w3.org/2000/svg">
<g filter="url(#filter0_d_721_9036)">
<circle cx="114.186" cy="114.885" r="107.006" fill="#131219"/>
</g>
<g clip-path="url(#clip0_721_9036)">
<path d="M114.541 190.388C156.393 190.388 190.321 156.442 190.321 114.568C190.321 72.6939 156.393 38.748 114.541 38.748C72.6894 38.748 38.7617 72.6939 38.7617 114.568C38.7617 156.442 72.6894 190.388 114.541 190.388Z" fill="#CC092F"/>
<path d="M186.779 137.475C185.575 141.236 184.088 144.946 182.348 148.423C180.426 147.483 178.413 146.543 176.359 145.937C173.405 145.067 170.37 145.017 167.427 145.997C164.574 146.958 162.035 148.656 159.496 150.243C154.721 153.246 149.309 156.652 142.43 156.652C132.223 156.652 125.06 150.557 122.774 139.932C121.004 131.693 114.53 100.616 114.53 100.616C112.011 113.304 108.076 131.693 106.305 139.932C104.019 150.557 96.8568 156.652 86.6598 156.652C79.7708 156.652 74.3587 153.246 69.5839 150.243C67.0548 148.656 64.5056 146.958 61.6528 145.997C58.7091 145.017 55.6742 145.067 52.7203 145.937C50.6668 146.543 48.6537 147.483 46.7316 148.423C44.9917 144.946 43.5046 141.236 42.3008 137.475C44.061 136.626 45.9021 135.797 47.7736 135.049C56.4329 131.591 64.3741 132.744 72.3253 137.576C72.3253 137.576 75.2286 139.345 76.0885 139.891C79.8011 142.216 83.2911 144.42 86.6598 144.42C89.8666 144.42 93.0127 143.561 94.348 137.354C96.4319 127.669 101.51 103.882 103.726 92.1043C105.031 85.1794 105.749 81.4491 106.487 78.9116C107.782 74.4736 110.159 72.0575 113.518 71.6531C113.518 71.6531 114.105 71.5723 114.54 71.5723C114.975 71.5723 115.501 71.643 115.501 71.643C118.9 72.0272 121.287 74.4534 122.592 78.9116C123.341 81.4491 124.049 85.1794 125.354 92.1043C127.569 103.882 132.648 127.669 134.731 137.354C136.067 143.561 139.223 144.42 142.43 144.42C145.788 144.42 149.278 142.216 152.991 139.891C153.861 139.345 156.754 137.576 156.754 137.576C164.705 132.744 172.647 131.591 181.316 135.049C183.187 135.797 185.029 136.626 186.779 137.475Z" fill="white"/>
</g>
<defs>
<filter id="filter0_d_721_9036" x="0.0220819" y="0.721301" width="228.327" height="228.327" filterUnits="userSpaceOnUse" color-interpolation-filters="sRGB">
<feFlood flood-opacity="0" result="BackgroundImageFix"/>
<feColorMatrix in="SourceAlpha" type="matrix" values="0 0 0 0 0 0 0 0 0 0 0 0 0 0 0 0 0 0 127 0" result="hardAlpha"/>
<feOffset/>
<feGaussianBlur stdDeviation="3.5788"/>
<feComposite in2="hardAlpha" operator="out"/>
<feColorMatrix type="matrix" values="0 0 0 0 0.8 0 0 0 0 0.0352941 0 0 0 0 0.184314 0 0 0 1 0"/>
<feBlend mode="normal" in2="BackgroundImageFix" result="effect1_dropShadow_721_9036"/>
<feBlend mode="normal" in="SourceGraphic" in2="effect1_dropShadow_721_9036" result="shape"/>
</filter>
<clipPath id="clip0_721_9036">
<rect width="151.741" height="151.741" fill="white" transform="translate(38.6719 38.6562)"/>
</clipPath>
</defs>
</svg>
